<svg id="Calque_1" data-name="Calque 1" xmlns="http://www.w3.org/2000/svg" viewBox="0 0 842.14 595.53"><defs><style>.cls-1{fill:#231f20;}.cls-2{fill:none;stroke:#231f20;stroke-miterlimit:10;stroke-width:0.25px;}</style></defs><title>SVG</title><path class="cls-1" d="M232,304.4a11,11,0,0,1-2,6.66,15.55,15.55,0,0,1-5.5,4.63,25.83,25.83,0,0,1-7.54,2.39,53.79,53.79,0,0,1-9.06.77q-3.3,0-5.92-.12c-1.75-.09-2.9-.15-3.46-.2l-1.06-9.45c.28,0,1.35.12,3.22.22s3.53.16,5,.16a36.66,36.66,0,0,0,4.11-.28,24.43,24.43,0,0,0,4.11-.77A6.66,6.66,0,0,0,217,306.7a3.79,3.79,0,0,0,.89-2.55,4.24,4.24,0,0,0-1-2.83,11.43,11.43,0,0,0-3.38-2.37q-1.47-.74-4-1.86a35.17,35.17,0,0,1-4.3-2.25,13.42,13.42,0,0,1-4.94-4.68,11.3,11.3,0,0,1-1.5-5.76,10.49,10.49,0,0,1,1.11-4.87,12,12,0,0,1,2.94-3.71,18.62,18.62,0,0,1,7.55-3.9,41,41,0,0,1,11.29-1.38c2.06,0,3.84,0,5.33.09s2.42.11,2.79.16l1.2,9.46c-.59,0-1.52-.09-2.78-.2s-2.85-.15-4.75-.15a24.36,24.36,0,0,0-3.78.28,21.32,21.32,0,0,0-3.46.84,5.4,5.4,0,0,0-2.44,1.48,3.4,3.4,0,0,0-.9,2.39,3.69,3.69,0,0,0,1,2.44,12.29,12.29,0,0,0,3.45,2.45c1.08.53,2.34,1.13,3.78,1.79s2.85,1.38,4.24,2.18a14.34,14.34,0,0,1,5,4.6A11.18,11.18,0,0,1,232,304.4Z" transform="translate(0.13 0.13)"/><path class="cls-1" d="M270.3,299.46q0,8.61,0,13.28c0,3.11,0,4.92,0,5.41-.38.05-1.9.16-4.58.33s-5.5.26-8.5.26a52.47,52.47,0,0,1-6.74-.49,24,24,0,0,1-6.31-1.58,12.86,12.86,0,0,1-5.06-3.71,8.4,8.4,0,0,1-1.83-5.4,8.81,8.81,0,0,1,1.95-5.76,14.1,14.1,0,0,1,6.1-3.94,33.54,33.54,0,0,1,6.86-1.65q4.08-.6,7.38-.84a5.65,5.65,0,0,0-1-3.12,5.87,5.87,0,0,0-3-1.88,16.41,16.41,0,0,0-3.11-.65,36.52,36.52,0,0,0-4.06-.19c-1.43,0-2.65,0-3.66.07l-3.27.14.95-7.84,2.25-.09c1,0,2.49-.05,4.36-.05a40.47,40.47,0,0,1,9.9,1,16.15,16.15,0,0,1,6.66,3.37,12.56,12.56,0,0,1,3.64,5.22A23.72,23.72,0,0,1,270.3,299.46ZM260.1,306v-2.62q0-1.5,0-3.15c-.68,0-1.89.16-3.62.41a18.07,18.07,0,0,0-4.64,1.24,7.65,7.65,0,0,0-2.59,1.76,4.06,4.06,0,0,0-1.17,3,4.51,4.51,0,0,0,1,3.13,6.82,6.82,0,0,0,2.69,1.8,14,14,0,0,0,2.71.63,23.87,23.87,0,0,0,3.27.21l1.05,0h1.27c0-.31,0-1,0-2.15S260.1,307.61,260.1,306Z" transform="translate(0.13 0.13)"/><path class="cls-1" d="M314.77,318.15H304c0-.73,0-2.52,0-5.36s.06-5.11.06-6.77c0-1.17,0-2.83,0-5s0-3.76-.05-4.87a8.62,8.62,0,0,0-1.11-4.69c-.69-1-1.92-1.46-3.68-1.46a12,12,0,0,0-4.13.9,30.2,30.2,0,0,0-4.48,2.12c0,.15,0,1.46,0,3.94s0,4.57,0,6.26q0,3.79.07,9.11c0,3.53.07,5.47.07,5.8h-10.8c0-.54,0-2.18.06-4.93s.05-6.73.05-12c0-3,0-6.1,0-9.23s0-6.38-.07-9.76h10.59l0,3.34,0,.07a40.57,40.57,0,0,1,7.06-3.09,21.4,21.4,0,0,1,6.58-1.23,10.16,10.16,0,0,1,7.71,3,11.28,11.28,0,0,1,2.87,8.11q0,4.24-.05,7.08c0,1.89-.06,3.48-.06,4.76,0,2.18,0,4.86.07,8S314.77,317.44,314.77,318.15Z" transform="translate(0.13 0.13)"/><path class="cls-1" d="M349.65,307.32a8.23,8.23,0,0,1-1.6,5,12.35,12.35,0,0,1-4.06,3.48,20.73,20.73,0,0,1-6.33,2.07,42.92,42.92,0,0,1-7.59.67c-1.72,0-3.26,0-4.63-.07s-2.3-.11-2.79-.11l-.85-7.73,2.68.12c1.24.06,2.6.09,4.07.09q1.17,0,2.64-.12a14.9,14.9,0,0,0,2.78-.51,4.89,4.89,0,0,0,2.55-1.32,2.92,2.92,0,0,0,.61-1.85,2.25,2.25,0,0,0-.68-1.65,10.1,10.1,0,0,0-2.17-1.48,29.47,29.47,0,0,0-3.09-1.54,32.66,32.66,0,0,1-3.41-1.76,10.09,10.09,0,0,1-3.6-3.5,8.69,8.69,0,0,1-1.18-4.48,8.26,8.26,0,0,1,1.51-4.84,11.74,11.74,0,0,1,4.61-3.67,20.11,20.11,0,0,1,6-1.72,52.44,52.44,0,0,1,6.45-.56c1.68,0,3.09,0,4.22,0s1.87.06,2.25.06l.91,7.77c-.35,0-1,0-2-.09s-2.18-.09-3.64-.09a19.72,19.72,0,0,0-2.84.19,13.38,13.38,0,0,0-2.39.55,4.52,4.52,0,0,0-2,1.18,2.24,2.24,0,0,0,.18,3.32,9.72,9.72,0,0,0,2.16,1.4c.87.47,2,1,3.25,1.62s2.33,1.14,3.08,1.58a11.34,11.34,0,0,1,3.67,3.4A8.14,8.14,0,0,1,349.65,307.32Z" transform="translate(0.13 0.13)"/><path class="cls-1" d="M405.62,318.46c-.57,0-1.37,0-2.41,0l-2.83,0a84.78,84.78,0,0,1-12-.68,27.18,27.18,0,0,1-8-2.41,18,18,0,0,1-7.4-6.17,15.48,15.48,0,0,1-2.51-8.7,15.93,15.93,0,0,1,2.76-9.14,18,18,0,0,1,8.28-6.37,29.67,29.67,0,0,1,6.45-1.91,45.54,45.54,0,0,1,7-.76l-.11-15.78h10.8q0,1-.06,9t-.05,18q0,8.68.05,14.76T405.62,318.46Zm-10.27-22.15v-5.8a28.88,28.88,0,0,0-4.64.37,14.28,14.28,0,0,0-4,1.29,9.06,9.06,0,0,0-4,3.49,10,10,0,0,0-1.43,5.37,9,9,0,0,0,1.27,4.79,9.76,9.76,0,0,0,3.48,3.36,14.67,14.67,0,0,0,4,1.51,21.08,21.08,0,0,0,4.61.5h.67c0-.24,0-1.63,0-4.17S395.35,300.91,395.35,296.31Z" transform="translate(0.13 0.13)"/><path class="cls-1" d="M442.28,290.27q-2.88.87-6.46,2.21t-9.32,3.94c0,.59,0,1.65,0,3.2s0,3.12,0,4.71c0,2.48,0,5.26.07,8.33s.07,4.9.07,5.49H415.81c0-.71,0-2.46.05-5.28s.06-6.57.06-11.28q0-3.37,0-8.51t-.07-10.83h10.55l0,5.17.07,0a70.5,70.5,0,0,1,7.18-3.89,44.05,44.05,0,0,1,6-2.44Z" transform="translate(0.13 0.13)"/><path class="cls-1" d="M476.32,299.46q0,8.61,0,13.28c0,3.11,0,4.92,0,5.41-.37.05-1.9.16-4.57.33s-5.51.26-8.51.26a52.33,52.33,0,0,1-6.73-.49,23.87,23.87,0,0,1-6.31-1.58A12.79,12.79,0,0,1,445.1,313a8.4,8.4,0,0,1-1.83-5.4,8.81,8.81,0,0,1,2-5.76,14,14,0,0,1,6.1-3.94,33.43,33.43,0,0,1,6.85-1.65q4.08-.6,7.39-.84a5.73,5.73,0,0,0-1-3.12,5.9,5.9,0,0,0-3.05-1.88,16.08,16.08,0,0,0-3.11-.65,36.4,36.4,0,0,0-4.06-.19c-1.43,0-2.65,0-3.65.07l-3.27.14.95-7.84,2.25-.09c1,0,2.48-.05,4.36-.05a40.33,40.33,0,0,1,9.89,1,16,16,0,0,1,6.66,3.37,12.47,12.47,0,0,1,3.64,5.22A23.69,23.69,0,0,1,476.32,299.46ZM466.12,306v-2.62c0-1,0-2.05,0-3.15-.67,0-1.88.16-3.62.41a18.18,18.18,0,0,0-4.64,1.24,7.61,7.61,0,0,0-2.58,1.76,4,4,0,0,0-1.18,3,4.51,4.51,0,0,0,1,3.13,6.82,6.82,0,0,0,2.69,1.8,13.86,13.86,0,0,0,2.71.63,23.61,23.61,0,0,0,3.26.21l1.06,0h1.26c0-.31,0-1,0-2.15S466.12,307.61,466.12,306Z" transform="translate(0.13 0.13)"/><path class="cls-1" d="M521.14,299.37a16.23,16.23,0,0,1-2.48,9.18,18.44,18.44,0,0,1-6.66,6,26.06,26.06,0,0,1-7.47,2.62,40.74,40.74,0,0,1-7.89.83l.1,16.13H486q0-1.65.05-9.86t.05-18.09q0-4.74,0-11.11t-.07-13l3.09-.05,2.71,0a84.53,84.53,0,0,1,11.3.62,30.42,30.42,0,0,1,8.6,2.55,16.46,16.46,0,0,1,7,5.81A14.8,14.8,0,0,1,521.14,299.37Zm-10.83.64a9.15,9.15,0,0,0-1.18-4.66A8.7,8.7,0,0,0,506,292.1a13,13,0,0,0-4-1.5,23.57,23.57,0,0,0-4.66-.44h-1.05c0,.42,0,1.59,0,3.5s0,4.73,0,8.46c0,1.17,0,2.74,0,4.72s0,3.35,0,4.1a24.73,24.73,0,0,0,4.77-.48,14,14,0,0,0,3.95-1.28,9.37,9.37,0,0,0,5.38-9.17Z" transform="translate(0.13 0.13)"/><path class="cls-1" d="M560.66,300.18h-24.4a9.17,9.17,0,0,0,1.53,5,10.64,10.64,0,0,0,4.55,3.75,19.06,19.06,0,0,0,4.52,1.35,31.11,31.11,0,0,0,5.22.4c1.5,0,2.8,0,3.9-.07l2.43-.1-1.09,7.7c-.5,0-1.32.1-2.48.16s-2.49.08-4,.08A39.93,39.93,0,0,1,540,317.11a22.08,22.08,0,0,1-8.11-4.1,17.56,17.56,0,0,1-4.53-5.73,16.41,16.41,0,0,1-1.73-7.52,19.77,19.77,0,0,1,1.27-7.28,18.49,18.49,0,0,1,4.11-6.11,15.64,15.64,0,0,1,5.84-3.73,20.86,20.86,0,0,1,13.85-.23,13.64,13.64,0,0,1,5.13,3.22,15.08,15.08,0,0,1,3.7,6.1A27.52,27.52,0,0,1,560.66,300.18Zm-10.09-4.71a9.32,9.32,0,0,0-2.13-5.48,6.32,6.32,0,0,0-5-2,6.84,6.84,0,0,0-5.09,2,10,10,0,0,0-2.61,5.5Z" transform="translate(0.13 0.13)"/><path class="cls-1" d="M597.78,299.46q0,8.61,0,13.28c0,3.11,0,4.92,0,5.41-.38.05-1.9.16-4.58.33s-5.5.26-8.5.26a52.47,52.47,0,0,1-6.74-.49,24,24,0,0,1-6.31-1.58,12.86,12.86,0,0,1-5.06-3.71,8.4,8.4,0,0,1-1.83-5.4,8.81,8.81,0,0,1,1.95-5.76,14.1,14.1,0,0,1,6.1-3.94,33.54,33.54,0,0,1,6.86-1.65q4.08-.6,7.38-.84a5.65,5.65,0,0,0-1-3.12,5.87,5.87,0,0,0-3-1.88,16.41,16.41,0,0,0-3.11-.65,36.52,36.52,0,0,0-4.06-.19c-1.43,0-2.65,0-3.66.07l-3.27.14,1-7.84,2.25-.09c1,0,2.49-.05,4.36-.05a40.47,40.47,0,0,1,9.9,1,16.15,16.15,0,0,1,6.66,3.37,12.56,12.56,0,0,1,3.64,5.22A23.72,23.72,0,0,1,597.78,299.46ZM587.58,306v-2.62q0-1.5,0-3.15c-.68,0-1.89.16-3.62.41a18.07,18.07,0,0,0-4.64,1.24,7.65,7.65,0,0,0-2.59,1.76,4.06,4.06,0,0,0-1.17,3,4.51,4.51,0,0,0,1,3.13,6.82,6.82,0,0,0,2.69,1.8,14,14,0,0,0,2.71.63,23.87,23.87,0,0,0,3.27.21l1,0h1.27c0-.31,0-1,0-2.15S587.58,307.61,587.58,306Z" transform="translate(0.13 0.13)"/><path class="cls-1" d="M641.94,318.15H631.42v-3.41l0,0a56.18,56.18,0,0,1-6.31,2.92,19.27,19.27,0,0,1-7.16,1.51q-5.13,0-8-3c-1.88-2-2.83-4.78-2.83-8.3,0-2.23,0-4.63,0-7.22s.06-4.49.06-5.68c0-2.18,0-4.68-.07-7.51s-.07-4.54-.07-5.15h10.79c0,.59,0,2.22,0,4.91s-.06,4.92-.06,6.73c0,1.43,0,3.23,0,5.41s0,3.78,0,4.78a10.13,10.13,0,0,0,1,4.77,3.59,3.59,0,0,0,3.41,1.67,13,13,0,0,0,5-1.14,23,23,0,0,0,4-2c0-.16,0-1.34,0-3.55s0-4.68,0-7.45q0-3.59-.07-8.35c0-3.18-.07-5.09-.07-5.75h10.8c0,.61,0,2.36-.06,5.26s0,6.59,0,11.09q0,4.68,0,8.35T641.94,318.15Z" transform="translate(0.13 0.13)"/><rect class="cls-2" x="0.13" y="0.13" width="841.89" height="595.28"/></svg>